<svg width="70" height="70" viewBox="0 0 70 70" fill="none" xmlns="http://www.w3.org/2000/svg">
<path d="M38.3128 20.8909L38.5026 21.9283L39.1856 21.1247L51.1105 7.09578L44.9235 24.4375L44.5692 25.4308L45.5625 25.0765L62.9042 18.8895L48.8753 30.8144L48.0717 31.4974L49.1091 31.6872L67.221 35L49.1091 38.3128L48.0717 38.5026L48.8753 39.1856L62.9042 51.1105L45.5625 44.9235L44.5692 44.5692L44.9235 45.5625L51.1105 62.9042L39.1856 48.8753L38.5026 48.0717L38.3128 49.1091L35 67.221L31.6872 49.1091L31.4974 48.0717L30.8144 48.8753L18.8895 62.9042L25.0765 45.5625L25.4308 44.5692L24.4375 44.9235L7.09578 51.1105L21.1247 39.1856L21.9283 38.5026L20.8909 38.3128L2.77897 35L20.8909 31.6872L21.9283 31.4974L21.1247 30.8144L7.09577 18.8895L24.4375 25.0765L25.4308 25.4308L25.0765 24.4375L18.8895 7.09577L30.8144 21.1247L31.4974 21.9283L31.6872 20.8909L35 2.77897L38.3128 20.8909Z" stroke="#214E34"/>
</svg>
